<?xml version="1.0" encoding="UTF-8" standalone="no"?>
<svg
   width="300"
   height="300"
   viewBox="0 0 300 300"
   version="1.1"
   id="svg255"
   xmlns="http://www.w3.org/2000/svg"
   xmlns:svg="http://www.w3.org/2000/svg">
  <defs
     id="defs241">
    <style
       id="style239">
      .a {
        fill: none;
        stroke: #000;
        stroke-linecap: round;
        stroke-miterlimit: 10;
        stroke-width: 6px;
      }
    </style>
  </defs>
  <path
     d="m 117.55,242.49 a 7.94,7.94 0 0 1 -5.65,-2.35 v 0 L 98.56,226.81 a 8,8 0 0 1 0,-11.31 L 125,189.05 a 8,8 0 0 1 11.31,0 l 13.34,13.33 a 8,8 0 0 1 0,11.31 l -26.45,26.45 a 8,8 0 0 1 -5.65,2.35 z m 13.12,-51.78 a 4,4 0 0 0 -2.83,1.17 l -26.45,26.44 a 4,4 0 0 0 0,5.66 l 13.33,13.33 a 4.08,4.08 0 0 0 5.66,0 l 26.45,-26.44 a 4,4 0 0 0 0,-5.66 L 133.5,191.88 a 4,4 0 0 0 -2.83,-1.17 z"
     id="path243" />
  <path
     d="m 231.33,216.1 h -15.07 a 8,8 0 0 0 -7.94,-7.09 h -15.07 a 8,8 0 0 0 -7.95,-7.08 h -18.85 a 8,8 0 0 0 -8,8 v 37.4 a 8,8 0 0 0 8,8 h 15.07 a 8,8 0 0 0 7.94,7.09 h 15.07 a 8,8 0 0 0 7.94,7.08 h 18.86 a 8,8 0 0 0 8,-8 v -37.4 a 8,8 0 0 0 -8,-8 z m -68.88,31.23 v -37.4 a 4,4 0 0 1 4,-4 h 18.85 a 4,4 0 0 1 3.89,3.1 8,8 0 0 0 -7.73,8 v 34.32 h -15 a 4,4 0 0 1 -4.01,-4.02 z m 23.12,8 a 3.82,3.82 0 0 1 -0.11,-0.9 V 217 a 4,4 0 0 1 3.84,-4 h 0.16 18.86 a 4,4 0 0 1 3.89,3.1 8,8 0 0 0 -7.74,8 v 34.32 h -15 a 4,4 0 0 1 -3.9,-3.1 z m 49.76,6.18 a 4,4 0 0 1 -4,4 h -18.86 a 4,4 0 0 1 -3.89,-3.1 4.43,4.43 0 0 1 -0.11,-0.9 V 224.1 a 4,4 0 0 1 3.85,-4 h 0.15 18.86 a 4,4 0 0 1 4,4 z"
     id="path245" />
  <circle
     cx="150"
     cy="85.709999"
     r="27.5"
     id="circle247" />
  <path
     d="M 120.41,138.94 C 113,147 103.87,154 99,163.79 c -6.72,14.53 4.62,29.66 14.9,39.67 3.33,3.23 6.91,6.36 10.66,9.39 5.31,9.6 -20,-4 -22.28,-5.41 C 85,197.78 71.71,178.7 75.66,158.19 c 2.92,-16.92 14.08,-31.19 28,-40.44 13.94,-8.7 28.34,9.78 16.75,21.19 z"
     id="path249" />
  <path
     d="m 209.89,112.33 c 8,18.75 16.46,57.76 -7.64,68.07 -18.36,5.71 -34.9,-6.53 -52.76,-7.66 a 56.89,56.89 0 0 0 -14.33,0.16 2.06,2.06 0 0 1 -1.3,-3.82 c 9.26,-5.11 20.22,-6.76 30.7,-6.94 9.15,-0.5 18.92,1.4 27.5,-0.71 a 1.84,1.84 0 0 0 1,-1 c -0.59,-13 -6.28,-26.87 -8.86,-39.91 -3.06,-15.87 19.07,-22.78 25.69,-8.19 z"
     id="path251" />
  <line
     class="a"
     x1="10"
     y1="171.42999"
     x2="290"
     y2="171.42999"
     id="line253" />
</svg>
