<?xml version="1.0" encoding="UTF-8" standalone="no"?>
<!-- Generator: Adobe Illustrator 24.1.0, SVG Export Plug-In . SVG Version: 6.00 Build 0)  -->

<svg
   version="1.1"
   id="Layer_1"
   x="0px"
   y="0px"
   viewBox="0 0 102.97905 32.744526"
   width="102.97905"
   height="32.744526"
   xml:space="preserve"
   xmlns="http://www.w3.org/2000/svg"
   xmlns:svg="http://www.w3.org/2000/svg"><defs
   id="defs343" />
<style
   type="text/css"
   id="style328">
	.st0{fill:#42C1CA;}
	.st1{fill:#FEFEFE;}
	.st2{fill-rule:evenodd;clip-rule:evenodd;fill:#333333;}
</style>
<g
   id="g338"
   transform="translate(-6.8277377,-13.627738)">
	<g
   id="g332">
		<path
   class="st0"
   d="M 39.3,32.4 C 38,41.3 29.7,47.5 20.8,46.2 11.9,44.9 5.7,36.5 7,27.6 8.3,18.7 16.6,12.5 25.5,13.8 c 8.9,1.4 15.1,9.7 13.8,18.6"
   id="path330" />
	</g>
	<path
   class="st1"
   d="m 30.5,20.2 c -3.3,-2.1 -5.7,2.5 -5.7,2.6 -0.6,1.1 -1.1,2.9 -1.4,4.2 l -4.3,-0.6 -0.2,1.2 4.2,0.6 c -0.1,0.6 -0.2,1 -0.2,1 l -0.2,1.3 v 0 0.1 l -4.2,-0.6 -0.2,1.2 4.2,0.6 c -1.1,5.5 -1.9,7.2 -2.7,8.1 -0.2,0.2 -1.3,1 -1.9,-0.4 -0.4,-1 -1.2,-0.8 -1.2,-0.8 -0.2,0 -1.2,0.6 0.4,1.7 3.3,2.1 5.7,-2.5 5.7,-2.6 0.6,-1.1 1.4,-4.2 1.7,-5.6 L 28.8,32.8 29,31.6 24.7,31 c 0.1,-0.6 0.2,-1 0.2,-1 l 0.2,-1.3 v 0 -0.1 l 4.2,0.6 0.2,-1.2 -4.2,-0.6 c 1.1,-5.5 1.6,-5.8 2.4,-6.8 0.2,-0.2 1.3,-1 1.9,0.4 0.4,1 1.2,0.8 1.2,0.8 0.3,0.1 1.3,-0.6 -0.3,-1.6"
   id="path334" />
	<path
   class="st2"
   d="m 53.8,29.1 h -6 V 24.2 H 54 l 0.1,-1.5 h -8 v 14.5 h 1.7 v -6.7 h 6 z m 3.9,-6.4 h -1.6 v 1.9 h 1.6 z m 0,3.8 h -1.6 v 10.7 h 1.6 z m 4.4,-3.9 -1.6,0.2 v 9.9 c 0,3.5 0.1,4.8 2.7,4.8 0.4,0 0.7,-0.1 1.1,-0.1 L 64.2,36 c -0.5,0 -0.6,0.1 -0.9,0.1 -1.1,0 -1.2,-0.7 -1.2,-3 z m 8,14.8 c -3,0 -4.9,-2.2 -4.9,-5.6 0,-3.2 1.9,-5.5 4.7,-5.6 2.6,0 4.3,2 4.3,5.1 0,0.2 0,0.6 0,0.7 h -7.3 c 0,2.4 1.4,3.9 3.3,3.9 1.2,0 2.4,-0.4 3.4,-1.1 l 0.5,1.2 c -1,0.9 -2.3,1.4 -4,1.4 z M 66.9,31 h 5.7 c 0,-2.3 -1.1,-3.4 -2.7,-3.4 -1.6,0 -2.8,1.4 -3,3.4 z m 16.8,5.5 c -0.7,0.7 -1.8,1 -2.9,1 -3.3,0 -5.1,-2.6 -5.1,-5.6 0,-3 1.9,-5.6 5.1,-5.6 1.2,0 2.3,0.4 2.9,0.9 l -0.4,1.2 c -0.7,-0.5 -1.6,-0.7 -2.5,-0.7 -1.9,0 -3.4,1.8 -3.4,4.3 0,2.5 1.4,4.2 3.6,4.2 0.9,0 1.7,-0.3 2.4,-0.8 z m 9.5,-4.6 c 0,-2.3 -0.8,-4.3 -3.2,-4.3 -2.3,0 -3.3,2.1 -3.3,4.3 0,2.2 1.1,4.2 3.4,4.2 2.3,0 3.1,-2 3.1,-4.2 z m 1.7,0 c 0,2.9 -1.7,5.6 -4.9,5.6 -3.2,0 -5,-2.5 -5,-5.5 0,-3 1.8,-5.6 5.1,-5.6 3.1,-0.1 4.8,2.4 4.8,5.5 z m 3.9,-9.2 h -1.6 v 1.9 h 1.6 z m 0,3.8 h -1.6 v 10.7 h 1.6 z m 7.7,-0.2 c -1.5,0 -3,0.7 -3.8,1.8 l -0.1,-1.6 h -1.4 v 2.6 8.1 h 1.6 v -7.3 c 0.3,-1 1.5,-2.2 3.3,-2.2 2,0 2.1,1.4 2.1,4.2 v 5.3 h 1.6 v -6.4 c 0.1,-3 -0.9,-4.5 -3.3,-4.5 z"
   id="path336" />
</g>
</svg>
